<?xml version="1.0" encoding="UTF-8"?>
<svg xmlns="http://www.w3.org/2000/svg" version="1.1" viewBox="0 0 440.95041 100.78866" height="26.667mm" width="116.66813mm">
	<g transform="scale(0.78741142)">
		<path style="fill:#CC0000;fill-rule:evenodd;stroke:none;stroke-width:1" d="M 284.929,98.441 C 283.067,96.582 282,94.006 282,91.373 V 64 c 0,-12.131 -9.869,-22 -22,-22 h -16.941 c -7.683,0 -14.911,4.093 -18.866,10.682 l -1.338,2.232 c -1.705,2.842 -0.783,6.527 2.059,8.232 2.843,1.702 6.527,0.78 8.232,-2.06 l 1.337,-2.231 C 236.28,55.859 239.566,54 243.059,54 H 260 c 5.514,0 10,4.486 10,10 v 2.884 l -33.132,5.302 C 227.094,73.75 220,82.068 220,91.967 220,103.014 228.987,112 240.033,112 h 21.934 c 5.414,0 10.325,-2.168 13.934,-5.67 0.184,0.197 0.351,0.406 0.542,0.598 l 3.314,3.314 c 1.172,1.172 2.707,1.758 4.243,1.758 1.535,0 3.07,-0.586 4.242,-1.756 2.344,-2.344 2.344,-6.142 10e-4,-8.486 z M 270,91.967 c 0,4.429 -3.603,8.033 -8.033,8.033 H 240.033 C 235.604,100 232,96.396 232,91.967 c 0,-3.969 2.845,-7.305 6.765,-7.934 L 270,79.035 Z"/>
		<path style="fill:#CC0000;fill-rule:evenodd;stroke:none;stroke-width:1" d="m 340,42 h -10 c -3.96,0 -7.67,1.067 -10.883,2.906 C 318.065,43.171 316.177,42 314,42 c -3.314,0 -6,2.687 -6,6 v 58 c 0,3.314 2.686,6 6,6 3.314,0 6,-2.686 6,-6 V 64 c 0,-5.514 4.486,-10 10,-10 h 10 c 3.314,0 6,-2.687 6,-6 0,-3.313 -2.686,-6 -6,-6"/>
		<path style="fill:#CC0000;fill-rule:evenodd;stroke:none;stroke-width:1" d="m 398,42 h -18 c -12.131,0 -22,9.869 -22,22 v 26 c 0,12.131 9.869,22 22,22 h 21.056 c 7.804,0 14.82,-4.336 18.31,-11.316 1.483,-2.965 0.281,-6.569 -2.682,-8.051 -2.966,-1.481 -6.568,-0.279 -8.05,2.683 -1.444,2.889 -4.349,4.684 -7.578,4.684 H 380 c -5.514,0 -10,-4.486 -10,-10 v -8 h 44 c 3.314,0 6,-2.685 6,-6 V 64 c 0,-12.131 -9.869,-22 -22,-22 z m 10,28 h -38 v -6 c 0,-5.514 4.486,-10 10,-10 h 18 c 5.514,0 10,4.486 10,10 z"/>
		<path style="fill:#CC0000;fill-rule:evenodd;stroke:none;stroke-width:1" d="m 480,42 h -18 c -3.96,0 -7.67,1.067 -10.883,2.906 C 450.065,43.171 448.177,42 446,42 c -3.313,0 -6,2.687 -6,6 v 58 c 0,3.314 2.687,6 6,6 3.314,0 6,-2.686 6,-6 V 64 c 0,-5.514 4.486,-10 10,-10 h 18 c 5.514,0 10,4.486 10,10 v 42 c 0,3.314 2.686,6 6,6 3.315,0 6,-2.686 6,-6 V 64 c 0,-12.131 -9.869,-22 -22,-22"/>
		<path style="fill:#CC0000;fill-rule:evenodd;stroke:none;stroke-width:1" d="m 200,54 c 3.314,0 6,-2.687 6,-6 0,-3.313 -2.686,-6 -6,-6 H 186 V 22 c 0,-3.313 -2.686,-6 -6,-6 -3.314,0 -6,2.687 -6,6 v 20 h -8 c -3.314,0 -6,2.687 -6,6 0,3.313 2.686,6 6,6 h 8 v 36 c 0,12.131 9.869,22 22,22 h 4 c 3.314,0 6,-2.686 6,-6 0,-3.314 -2.686,-6 -6,-6 h -4 c -5.514,0 -10,-4.486 -10,-10 V 54 h 14"/>
		<path style="fill:#CC0000;fill-rule:evenodd;stroke:none;stroke-width:1" d="m 554,100 h -4 c -5.514,0 -10,-4.486 -10,-10 V 54 h 14 c 3.315,0 6,-2.687 6,-6 0,-3.313 -2.685,-6 -6,-6 H 540 V 22 c 0,-3.313 -2.685,-6 -6,-6 -3.315,0 -6,2.687 -6,6 v 20 h -8 c -3.314,0 -6,2.687 -6,6 0,3.313 2.686,6 6,6 h 8 v 36 c 0,12.131 9.869,22 22,22 h 4 c 3.315,0 6,-2.686 6,-6 0,-3.314 -2.685,-6 -6,-6"/>
		<path style="fill:#CC0000;fill-rule:evenodd;stroke:none;stroke-width:1" d="M 64,0 C 28.654,0 0,28.654 0,64 0,99.346 28.654,128 64,128 99.346,128 128,99.346 128,64 128,28.654 99.346,0 64,0 Z m 42.535,70.535 -22,22 C 83.56,93.512 82.279,94 81,94 c -1.279,0 -2.56,-0.488 -3.535,-1.465 -1.953,-1.953 -1.953,-5.117 0,-7.07 L 90.929,72 H 25 c -2.762,0 -5,-2.238 -5,-5 V 45 c 0,-2.762 2.238,-5 5,-5 2.762,0 5,2.238 5,5 V 62 H 90.929 L 77.465,48.535 c -1.953,-1.952 -1.953,-5.118 0,-7.07 1.951,-1.953 5.119,-1.953 7.07,0 l 22,22 c 1.953,1.953 1.953,5.117 0,7.07 z"/>
	</g>
</svg>
